<?xml version="1.0" encoding="utf-8"?>
<!-- Generator: Adobe Illustrator 19.2.1, SVG Export Plug-In . SVG Version: 6.00 Build 0)  -->
<svg version="1.1" id="Group_7_1_" xmlns="http://www.w3.org/2000/svg" xmlns:xlink="http://www.w3.org/1999/xlink" x="0px" y="0px"
	 viewBox="0 0 32 71" style="enable-background:new 0 0 32 71;" xml:space="preserve">
<style type="text/css">
	.st0{fill-rule:evenodd;clip-rule:evenodd;fill:#FFFFFF;}
	.st1{fill:#FFFFFF;}
</style>
<g id="Rectangle_793">
	<g>
		<rect x="14" y="58" class="st0" width="4" height="10"/>
	</g>
</g>
<g id="Rounded_Rectangle_10">
	<g>
		<path class="st1" d="M16,3c7.2,0,13,5.8,13,13v28c0,7.2-5.8,13-13,13S3,51.2,3,44V16C3,8.8,8.8,3,16,3 M16,0C7.2,0,0,7.2,0,16v28
			c0,8.8,7.2,16,16,16s16-7.2,16-16V16C32,7.2,24.8,0,16,0L16,0z"/>
	</g>
</g>
<g id="Rectangle_794">
	<g>
		<rect x="1" y="68" class="st0" width="31" height="3"/>
	</g>
</g>
<g id="Rectangle_795_copy">
	<g>
		<path class="st0" d="M3,20v3h26v-3H3z M3,29h26v-3H3V29z"/>
	</g>
</g>
</svg>
