<svg id="Layer_1" data-name="Layer 1" xmlns="http://www.w3.org/2000/svg" viewBox="0 0 104.06 85.9"><defs><style>.cls-1,.cls-2{fill:#fff;stroke:#fff;stroke-miterlimit:10;}.cls-1{stroke-width:0.5px;}</style></defs><title>GPS</title><path class="cls-1" d="M51.19,1.61c1,0.64,1.93,1.29,3,1.93A15.7,15.7,0,0,1,58.39,8a15.27,15.27,0,0,1,2.7,8.75A15.47,15.47,0,0,1,59.55,24c-1.54,3-3.22,5.79-4.89,8.75-1.41,2.44-2.83,5-4.24,7.46-1.8,3.22-3.73,6.56-5.53,9.77-0.77,1.29-2.06,1.41-2.7,0a32.71,32.71,0,0,0-2.06-3.6c-1.67-3-3.34-5.79-5-8.75s-3.22-5.53-4.76-8.36A41.09,41.09,0,0,1,27,23.09,16.2,16.2,0,0,1,29.45,6.5a15.25,15.25,0,0,1,5.66-4.63,1.78,1.78,0,0,0,.51-0.39A20.38,20.38,0,0,1,51.19,1.61ZM43.34,47a22.36,22.36,0,0,0,1.41-2.32c1.67-3,3.34-5.92,5-8.75C52,32.09,54,28.36,56.2,24.51A14.5,14.5,0,0,0,53.89,7a14.8,14.8,0,0,0-11.7-4.24,14.48,14.48,0,0,0-12.6,8.49A13,13,0,0,0,30,23.86c1.67,2.83,3.34,5.79,5,8.62,2.57,4.5,5.14,8.87,7.72,13.38A5.22,5.22,0,0,1,43.34,47Z" transform="translate(0.75 0.25)"/><path class="cls-1" d="M22.25,43.93c2.57,2.32,5.27,4.63,7.85,6.95,0.9,0.77,1.67,1.54,2.57,2.32,2.19,1.93,4.37,4,6.56,5.92,1.67,1.54,3.34,3,5,4.5s3.22,2.83,4.76,4.24c1.16,1,2.19,2.06,3.34,3a1,1,0,0,0,.64.26c8.23-.26,16.59-0.51,24.82-0.9A0.26,0.26,0,0,0,78.07,70l-0.39-.39c-2.7-2.19-5.4-4.5-8.1-6.69-1.67-1.29-3.22-2.7-4.89-4s-3.22-2.7-4.89-4-3.22-2.7-4.89-4c-0.9-.77-1.8-1.41-2.7-2.19A1.28,1.28,0,0,1,52,46.76a1.33,1.33,0,0,1,2.06,0c1.67,1.41,3.34,2.83,5.14,4.12,1.54,1.29,3.22,2.57,4.76,3.86,3.34,2.7,6.56,5.4,9.9,8.1,1.67,1.29,3.22,2.7,4.89,4,1.16,0.9,2.32,1.8,3.6,2.83,5.53-3.47,11.19-6.82,16.85-10.29-1.29-.9-2.44-1.8-3.73-2.57-3.6-2.44-7.33-4.89-10.93-7.46-3.22-2.19-6.56-4.37-9.77-6.56s-6.56-4.37-9.77-6.69a3.22,3.22,0,0,1-.9-0.51c-1-1.16-2.19-1.16-3.47-.26a2.72,2.72,0,0,1-1.29.51,1.17,1.17,0,0,1-1.41-.77,1.09,1.09,0,0,1,.51-1.54c1.29-.64,2.44-1.29,3.73-1.93a1.58,1.58,0,0,1,1.29.26c1.8,1.16,3.47,2.32,5.27,3.47,3.34,2.32,6.82,4.63,10.16,6.95s6.43,4.37,9.52,6.43c3.34,2.32,6.69,4.5,10,6.82,1.29,0.9,2.57,1.67,3.86,2.57a1.32,1.32,0,0,1,0,2.44c-2.57,1.67-5.27,3.22-7.85,4.89-3.09,1.93-6.3,3.86-9.52,5.79A10.92,10.92,0,0,1,80,72.74c-8.87.26-17.88,0.51-26.75,0.9a2.38,2.38,0,0,0-.9.26c-2.32,1.29-4.5,2.57-6.69,3.86-3.34,1.93-6.82,3.86-10.16,5.92-0.77.51-1.67,0.9-2.44,1.41a1.29,1.29,0,0,1-1.93-.26c-1.67-1.8-3.47-3.6-5.14-5.4s-3.34-3.6-5.14-5.4c-1.54-1.67-3.22-3.34-4.76-5s-3.34-3.47-5-5.14-3.22-3.34-4.76-5S3,55.37,1.29,53.7C0.9,53.32.39,52.93,0,52.54a1.34,1.34,0,0,1,.39-2.32c3.47-1.8,7.07-3.47,10.55-5.14,1.8-.9,3.6-1.67,5.27-2.7A10.55,10.55,0,0,1,21,41.1c3.86,0,7.59-.26,11.45-0.39h0.64A1.12,1.12,0,0,1,34,42a1.15,1.15,0,0,1-1.16,1.16c-2.83.13-5.66,0.26-8.49,0.26a6.26,6.26,0,0,0-1.54.13A0.8,0.8,0,0,0,22.25,43.93Zm-19.68,8,3.22,3.22c1.67,1.67,3.22,3.34,4.89,5s3.34,3.47,5,5.14,3.22,3.34,4.76,5,3.34,3.6,5.14,5.4L32,82.51C37.94,79,43.86,75.69,49.9,72.22a2.69,2.69,0,0,0-.77-0.51c-1.67-1.54-3.34-3.09-5-4.5s-3.22-2.83-4.89-4.37-3.22-3-4.89-4.37-3.22-3-4.89-4.37-3.22-3-4.89-4.37c-1.93-1.67-3.86-3.47-5.79-5.14a0.62,0.62,0,0,0-.9-0.13L14,46.37c-1.16.64-2.32,1.16-3.6,1.8C7.85,49.33,5.27,50.61,2.57,51.9Z" transform="translate(0.75 0.25)"/><path class="cls-2" d="M50.93,17.3c0.13,3.86-3.73,7.33-7.72,7.33a7.52,7.52,0,0,1-7.46-7.33A7.39,7.39,0,0,1,43.34,10C47.2,9.72,51.19,13.19,50.93,17.3Zm-7.59,4.63a4.78,4.78,0,0,0,4.89-4.76,4.7,4.7,0,0,0-4.89-4.76,5,5,0,0,0-4.89,4.76A4.94,4.94,0,0,0,43.34,21.93Z" transform="translate(0.75 0.25)"/></svg>