<?xml version="1.0" encoding="utf-8"?>
<!-- Generator: Adobe Illustrator 19.2.1, SVG Export Plug-In . SVG Version: 6.00 Build 0)  -->
<svg version="1.1" id="Main" xmlns="http://www.w3.org/2000/svg" xmlns:xlink="http://www.w3.org/1999/xlink" x="0px" y="0px"
	 viewBox="0 0 53.6 75" style="enable-background:new 0 0 53.6 75;" xml:space="preserve">
<style type="text/css">
	.st0{fill:#FFFFFF;}
	.st1{fill:none;stroke:#FFFFFF;stroke-width:3;stroke-linecap:round;stroke-miterlimit:10;}
</style>
<g>
	<path class="st0" d="M26.7,3c0.1,0,0.2,0.1,0.2,0.1c5.5,6.1,23.5,27.2,23.5,45.1C50.4,61.3,39.7,72,26.6,72S2.8,61.3,2.8,48.2
		c0-17.9,18-39,23.5-45.1C26.5,3.1,26.6,3,26.7,3 M26.7,0c-0.9,0-1.8,0.4-2.4,1.1C17.7,8.4,0,29.6,0,48.2C0,63,12,75,26.8,75l0,0
		c14.8,0,26.8-12,26.8-26.8c0-18.7-17.7-39.9-24.3-47.1C28.5,0.4,27.6,0,26.7,0L26.7,0z"/>
</g>
<path class="st1" d="M43.8,49.8c0,7.6-6.2,13.8-13.8,13.8"/>
</svg>
