<svg id="Main" xmlns="http://www.w3.org/2000/svg" viewBox="0 0 48.6 85.4"><defs><style>.cls-1{fill:#fff;}</style></defs><title>Battery</title><path class="cls-1" d="M64,81.5a0.9,0.9,0,0,1-.9.9H22.4a0.9,0.9,0,0,1-.9-0.9V13.6a0.9,0.9,0,0,1,.9-0.9h8.4V3.9A0.9,0.9,0,0,1,31.7,3H53a0.9,0.9,0,0,1,.9.9v8.8h9.3a0.9,0.9,0,0,1,.9.9L64,81.5m3,0V13.6a3.9,3.9,0,0,0-3.9-3.9H56.8V3.9A3.9,3.9,0,0,0,52.9,0H31.6a3.9,3.9,0,0,0-3.9,3.9V9.7H22.3a3.9,3.9,0,0,0-3.9,3.9V81.5a3.9,3.9,0,0,0,3.9,3.9H63a3.93,3.93,0,0,0,4-3.9h0Z" transform="translate(-18.4)"/><polygon class="cls-1" points="10.8 60.1 22.4 40.7 15.8 40.7 30.3 16.5 6.5 16.5 6.5 78.5 17.6 60.1 10.8 60.1"/><polygon class="cls-1" points="42.1 16.5 42 16.5 30.3 35.9 37 35.9 23.8 55.3 32.1 55.3 8.9 78.6 42.1 78.6 42.1 16.5"/></svg>