<?xml version="1.0" encoding="utf-8"?>
<!-- Generator: Adobe Illustrator 19.2.1, SVG Export Plug-In . SVG Version: 6.00 Build 0)  -->
<svg version="1.1" id="Layer_1" xmlns="http://www.w3.org/2000/svg" xmlns:xlink="http://www.w3.org/1999/xlink" x="0px" y="0px"
	 viewBox="0 0 60 60" style="enable-background:new 0 0 60 60;" xml:space="preserve">
<style type="text/css">
	.st0{fill:#FFFFFF;stroke:#FFFFFF;stroke-miterlimit:10;}
	.st1{fill:#FFFFFF;stroke:#FFFFFF;stroke-width:0.2;stroke-miterlimit:10;}
</style>
<path class="st0" d="M30,7c0.4,0,0.8-0.3,0.8-0.8S30.4,5.5,30,5.5l0,0C17.2,5.5,6.6,15.3,5.7,28L2,24.2c-0.3-0.3-0.8-0.3-1.1,0
	s-0.3,0.8,0,1.1l0,0l4.9,5.2c0.3,0.3,0.8,0.3,1.1,0c0.2-0.1,0.2-0.3,0.2-0.5C7.1,17.2,17.4,7,30,7z"/>
<path class="st0" d="M59,34.5l-4.9-5.2c-0.3-0.3-0.8-0.3-1.1,0c-0.2,0.1-0.2,0.3-0.2,0.5c0,12.6-10.3,22.9-22.9,22.9
	c-0.4,0-0.8,0.3-0.8,0.8s0.3,0.8,0.8,0.8c12.8,0,23.4-9.8,24.3-22.6l3.6,3.9c0.3,0.3,0.8,0.3,1.1,0C59.3,35.3,59.3,34.8,59,34.5
	L59,34.5z"/>
<path class="st0" d="M44.8,41.3c6.3-8,5-19.7-3.1-26s-19.7-5-26,3.1s-5,19.7,3.1,26c3.3,2.6,7.3,4,11.5,4
	C35.9,48.4,41.2,45.8,44.8,41.3z M16.9,19.3c5.8-7.4,16.5-8.7,23.9-2.8s8.7,16.5,2.8,23.9S27.1,49,19.7,43.2l0,0
	C12.3,37.4,11,26.8,16.9,19.3C16.8,19.4,16.8,19.4,16.9,19.3z"/>
<path class="st1" d="M44.3,29.3c-0.3,0.3-0.3,0.7,0,1c0,0,0,0,0,0c0.1,0.1,0.2,0.1,0.2,0.2c0.1,0,0.2,0.1,0.3,0.1
	c0.1,0,0.2,0,0.3-0.1c0.1,0,0.2-0.1,0.2-0.2c0.1-0.1,0.1-0.2,0.2-0.2c0-0.1,0.1-0.2,0-0.3c0-0.2-0.1-0.4-0.2-0.5
	c-0.1-0.1-0.2-0.1-0.2-0.2C44.9,29,44.5,29.1,44.3,29.3z"/>
<path class="st1" d="M43.8,26.6c0.1,0.1,0.2,0.1,0.2,0.2c0.1,0,0.2,0.1,0.3,0.1c0.2,0,0.4-0.1,0.5-0.2c0.1-0.1,0.2-0.3,0.2-0.5
	c0-0.1,0-0.2-0.1-0.3c0-0.1-0.1-0.2-0.2-0.2c-0.2-0.2-0.5-0.3-0.8-0.2c-0.1,0-0.2,0.1-0.2,0.2c-0.1,0.1-0.1,0.1-0.2,0.2
	c0,0.1-0.1,0.2-0.1,0.3C43.6,26.2,43.7,26.4,43.8,26.6z"/>
<path class="st1" d="M42.3,23c0.1,0.1,0.3,0.2,0.5,0.2c0.2,0,0.4-0.1,0.5-0.2c0.2-0.2,0.3-0.5,0.2-0.8c0-0.1-0.1-0.2-0.2-0.2
	c-0.1-0.1-0.2-0.1-0.2-0.2c-0.2-0.1-0.4-0.1-0.6,0c-0.1,0-0.2,0.1-0.2,0.2c-0.1,0.1-0.1,0.2-0.2,0.2c0,0.1,0,0.2,0,0.3
	c0,0.1,0,0.2,0,0.3C42.2,22.9,42.3,23,42.3,23z"/>
<path class="st1" d="M40,20c0.1,0.1,0.3,0.2,0.5,0.2c0.1,0,0.2,0,0.3,0c0.1,0,0.2-0.1,0.2-0.2c0.1-0.1,0.2-0.3,0.2-0.5
	c0-0.2-0.1-0.4-0.2-0.5c-0.1-0.1-0.2-0.1-0.2-0.2c-0.3-0.1-0.6,0-0.8,0.2c-0.1,0.1-0.1,0.2-0.2,0.2c0,0.1-0.1,0.2-0.1,0.3
	c0,0.1,0,0.2,0.1,0.3C39.9,19.9,39.9,19.9,40,20z"/>
<path class="st1" d="M37.2,17.9c0.1,0,0.2,0,0.3,0c0.1,0,0.2,0,0.3,0c0.1,0,0.2-0.1,0.2-0.2c0.1-0.1,0.2-0.3,0.2-0.5
	c0-0.1,0-0.2,0-0.3c0-0.1-0.1-0.2-0.2-0.2c-0.3-0.3-0.8-0.3-1.1,0c-0.1,0.1-0.2,0.3-0.2,0.5C36.8,17.5,36.9,17.7,37.2,17.9z"/>
<path class="st1" d="M34,16.5c0.4,0,0.7-0.3,0.8-0.8c0-0.1,0-0.2-0.1-0.3c0-0.1-0.1-0.2-0.2-0.2C34.3,15,34,14.9,33.7,15
	c-0.1,0-0.2,0.1-0.2,0.2c-0.1,0.1-0.1,0.1-0.2,0.2c0,0.1-0.1,0.2-0.1,0.3C33.2,16.1,33.6,16.5,34,16.5L34,16.5z"/>
<path class="st1" d="M30.2,16c0.4,0,0.7-0.3,0.8-0.8c0-0.1,0-0.2-0.1-0.3c0-0.1-0.1-0.2-0.2-0.2c-0.1-0.1-0.1-0.1-0.2-0.2
	c-0.4-0.2-0.8,0-1,0.4c-0.2,0.4,0,0.8,0.4,1C30,15.9,30.1,16,30.2,16L30.2,16z"/>
<path class="st1" d="M26.1,16.4c0.2,0.1,0.4,0.1,0.6,0c0.1,0,0.2-0.1,0.2-0.2c0.1-0.1,0.2-0.3,0.2-0.5c0-0.2-0.1-0.4-0.2-0.5
	c-0.1-0.1-0.2-0.1-0.2-0.2c-0.2-0.1-0.4-0.1-0.6,0c-0.1,0-0.2,0.1-0.2,0.2c-0.1,0.1-0.1,0.2-0.2,0.2c0,0.1-0.1,0.2-0.1,0.3
	c0,0.2,0.1,0.4,0.2,0.5C25.9,16.3,26,16.4,26.1,16.4z"/>
<path class="st1" d="M39.4,23.1c0.3-0.3,0.3-0.8,0-1.1c-0.3-0.3-0.8-0.3-1.1,0l-8.2,7.7l-4.6-4.6c-0.3-0.3-0.8-0.3-1.1,0
	s-0.3,0.8,0,1.1l5.2,5.2c0.3,0.3,0.7,0.3,1,0L39.4,23.1z"/>
<path class="st1" d="M24.9,40c-0.3-0.3-0.8-0.3-1.1,0c-0.1,0.1-0.1,0.2-0.2,0.2c0,0.1-0.1,0.2-0.1,0.3c0,0.4,0.3,0.7,0.8,0.8
	c0.4,0,0.7-0.3,0.7-0.7c0-0.1,0-0.2-0.1-0.3C25.1,40.1,25,40.1,24.9,40z"/>
</svg>
